:FULLY-SPECIFIED
:FORCE-ALL-JOINTS-BE-3DOF
:DEGREES
1020
root 0.249929 13.5522 -35.3933 372.203 -28.329 342.367
lfemur -69.9497 36.0908 -4.19147
ltibia 82.2866 0 0
lfoot -12.8648 -8.22548 0
ltoes -6.47146 0 0
rfemur 10.2458 -8.56197 8.58868
rtibia 36.3217 0 0
rfoot -22.4402 -26.1971 0
rtoes -31.7558 0 0
lowerback 10.2609 -0.784022 5.36504
upperback -1.7839 0.160063 8.13381
thorax -7.72181 0.00455444 5.66668
lowerneck -5.5164 8.32566 3.41402
upperneck 8.18509 10.9244 -0.778578
head 3.89858 5.47377 -0.272217
lclavicle -1.37962e-13 4.08592e-14 0
lhumerus 83.5161 -7.24011 26.4699
lradius 96.655 0 0
lwrist 9.3065 0 0
lhand -37.2896 29.9791 0
lfingers 7.12502 0 0
lthumb -10.3543 59.7106 0
rclavicle -1.37962e-13 4.08592e-14 0
rhumerus -77.3875 22.8547 -94.952
rradius 111.996 0 0
rwrist -63.1152 0 0
rhand -10.3159 -25.1069 0
rfingers 7.12502 0 0
rthumb 15.6794 -54.4916 0
1021
root 0.248651 13.5484 -35.3853 372.215 -28.3028 342.365
lfemur -69.9784 36.0852 -4.204
ltibia 82.2917 0 0
lfoot -12.86 -8.26228 0
ltoes -6.42038 0 0
rfemur 10.2616 -8.5648 8.60591
rtibia 36.2909 0 0
rfoot -22.4251 -26.2082 0
rtoes -31.7735 0 0
lowerback 10.254 -0.789794 5.35774
upperback -1.79582 0.152514 8.14349
thorax -7.7305 0.00141325 5.68331
lowerneck -5.48855 8.33884 3.38587
upperneck 8.19238 10.9457 -0.780995
head 3.89441 5.48351 -0.268468
lclavicle -1.35455e-13 3.89235e-14 0
lhumerus 83.4949 -7.41568 26.523
lradius 96.5293 0 0
lwrist 9.33651 0 0
lhand -37.2503 29.9453 0
lfingers 7.12502 0 0
lthumb -10.3164 59.6781 0
rclavicle -1.35455e-13 3.89235e-14 0
rhumerus -77.4182 22.906 -94.9724
rradius 111.99 0 0
rwrist -63.1194 0 0
rhand -10.3091 -25.0828 0
rfingers 7.12502 0 0
rthumb 15.6859 -54.467 0
1022
root 0.247372 13.5447 -35.3773 372.228 -28.277 342.362
lfemur -70.0065 36.0796 -4.21314
ltibia 82.3005 0 0
lfoot -12.8572 -8.30117 0
ltoes -6.36317 0 0
rfemur 10.2772 -8.57031 8.62179
rtibia 36.2636 0 0
rfoot -22.4142 -26.2177 0
rtoes -31.7865 0 0
lowerback 10.247 -0.79631 5.35093
upperback -1.80708 0.143959 8.1533
thorax -7.73833 -0.00224661 5.69996
lowerneck -5.45073 8.35132 3.36006
upperneck 8.1931 10.9666 -0.788873
head 3.88659 5.493 -0.267483
lclavicle -1.31974e-13 3.71779e-14 0
lhumerus 83.4718 -7.60743 26.5991
lradius 96.3772 0 0
lwrist 9.38091 0 0
lhand -37.1991 29.925 0
lfingers 7.12502 0 0
lthumb -10.2669 59.6595 0
rclavicle -1.31974e-13 3.71779e-14 0
rhumerus -77.4493 22.9582 -94.9935
rradius 111.984 0 0
rwrist -63.1252 0 0
rhand -10.3012 -25.0617 0
rfingers 7.12502 0 0
rthumb 15.6935 -54.4452 0
1023
root 0.246094 13.5409 -35.3693 372.24 -28.2523 342.359
lfemur -70.0347 36.0756 -4.21928
ltibia 82.3166 0 0
lfoot -12.8599 -8.34106 0
ltoes -6.30198 0 0
rfemur 10.2939 -8.57854 8.63467
rtibia 36.2399 0 0
rfoot -22.4085 -26.2253 0
rtoes -31.7929 0 0
lowerback 10.2391 -0.803139 5.34366
upperback -1.81773 0.134739 8.16259
thorax -7.74494 -0.00622506 5.71635
lowerneck -5.40231 8.36272 3.33739
upperneck 8.1863 10.9865 -0.802735
head 3.87474 5.50197 -0.269638
lclavicle -1.27526e-13 3.57959e-14 0
lhumerus 83.4465 -7.77363 26.7064
lradius 96.1919 0 0
lwrist 9.43148 0 0
lhand -37.1377 29.9142 0
lfingers 7.12502 0 0
lthumb -10.2076 59.6509 0
rclavicle -1.27526e-13 3.57959e-14 0
rhumerus -77.4808 23.0108 -95.0154
rradius 111.978 0 0
rwrist -63.1333 0 0
rhand -10.2921 -25.0433 0
rfingers 7.12502 0 0
rthumb 15.7023 -54.4262 0
1024
root 0.244816 13.5371 -35.3614 372.252 -28.2293 342.356
lfemur -70.0637 36.0744 -4.22279
ltibia 82.3438 0 0
lfoot -12.8713 -8.3809 0
ltoes -6.23897 0 0
rfemur 10.3128 -8.58951 8.64288
rtibia 36.2198 0 0
rfoot -22.4089 -26.2306 0
rtoes -31.7911 0 0
lowerback 10.2295 -0.809847 5.33498
upperback -1.82779 0.125199 8.17073
thorax -7.74994 -0.010322 5.73221
lowerneck -5.34264 8.37265 3.31866
upperneck 8.17103 11.005 -0.823105
head 3.8585 5.51019 -0.27531
lclavicle -1.22115e-13 3.49513e-14 0
lhumerus 83.4189 -7.87257 26.8532
lradius 95.9668 0 0
lwrist 9.47999 0 0
lhand -37.0679 29.909 0
lfingers 7.12502 0 0
lthumb -10.1403 59.6482 0
rclavicle -1.22115e-13 3.49513e-14 0
rhumerus -77.5124 23.0636 -95.0383
rradius 111.971 0 0
rwrist -63.1444 0 0
rhand -10.2818 -25.0275 0
rfingers 7.12502 0 0
rthumb 15.7122 -54.4097 0
1025
root 0.243537 13.5334 -35.3534 372.265 -28.2087 342.353
lfemur -70.0941 36.0777 -4.22407
ltibia 82.3858 0 0
lfoot -12.8948 -8.41961 0
ltoes -6.17629 0 0
rfemur 10.3351 -8.60325 8.64477
rtibia 36.2033 0 0
rfoot -22.4165 -26.2333 0
rtoes -31.7794 0 0
lowerback 10.2176 -0.816002 5.32396
upperback -1.83733 0.115682 8.17704
thorax -7.75295 -0.0143375 5.74726
lowerneck -5.27108 8.38072 3.30468
upperneck 8.14634 11.0216 -0.850506
head 3.83748 5.5174 -0.284876
lclavicle -1.15746e-13 3.48176e-14 0
lhumerus 83.3886 -7.8625 27.048
lradius 95.695 0 0
lwrist 9.51821 0 0
lhand -36.9917 29.9055 0
lfingers 7.12502 0 0
lthumb -10.0668 59.6476 0
rclavicle -1.15746e-13 3.48176e-14 0
rhumerus -77.5441 23.1164 -95.0622
rradius 111.963 0 0
rwrist -63.1591 0 0
rhand -10.2703 -25.0142 0
rfingers 7.12502 0 0
rthumb 15.7233 -54.3955 0
1026
root 0.242259 13.5296 -35.3454 372.277 -28.191 342.351
lfemur -70.1267 36.0867 -4.2235
ltibia 82.4462 0 0
lfoot -12.9339 -8.45613 0
ltoes -6.11611 0 0
rfemur 10.362 -8.61979 8.63869
rtibia 36.1905 0 0
rfoot -22.4323 -26.233 0
rtoes -31.7562 0 0
lowerback 10.2026 -0.821172 5.30965
upperback -1.84637 0.106531 8.1809
thorax -7.7536 -0.0180712 5.76123
lowerneck -5.18699 8.38654 3.29627
upperneck 8.11127 11.0357 -0.885462
head 3.81132 5.52335 -0.298712
lclavicle -1.08426e-13 3.55684e-14 0
lhumerus 83.3554 -7.7017 27.2989
lradius 95.37 0 0
lwrist 9.53791 0 0
lhand -36.911 29.8999 0
lfingers 7.12502 0 0
lthumb -9.98891 59.645 0
rclavicle -1.08426e-13 3.55684e-14 0
rhumerus -77.5759 23.1688 -95.0874
rradius 111.952 0 0
rwrist -63.178 0 0
rhand -10.2575 -25.0032 0
rfingers 7.12502 0 0
rthumb 15.7356 -54.3834 0
1027
root 0.24098 13.5258 -35.3374 372.289 -28.1769 342.35
lfemur -70.1621 36.103 -4.22146
ltibia 82.5287 0 0
lfoot -12.9917 -8.48939 0
ltoes -6.06057 0 0
rfemur 10.3948 -8.63916 8.62297
rtibia 36.1814 0 0
rfoot -22.4571 -26.2295 0
rtoes -31.7199 0 0
lowerback 10.1837 -0.824922 5.29111
upperback -1.85495 0.098089 8.18164
thorax -7.75152 -0.0213233 5.77384
lowerneck -5.08973 8.38973 3.29423
upperneck 8.06487 11.0467 -0.928496
head 3.77965 5.52779 -0.317196
lclavicle -1.00158e-13 3.73773e-14 0
lhumerus 83.3191 -7.34844 27.6145
lradius 94.985 0 0
lwrist 9.53087 0 0
lhand -36.8276 29.8883 0
lfingers 7.12502 0 0
lthumb -9.9084 59.6365 0
rclavicle -1.00158e-13 3.73773e-14 0
rhumerus -77.6077 23.2205 -95.1139
rradius 111.939 0 0
rwrist -63.2018 0 0
rhand -10.2435 -24.9942 0
rfingers 7.12502 0 0
rthumb 15.7492 -54.3734 0
